<svg width="16" height="12" viewBox="0 0 16 12" fill="none" xmlns="http://www.w3.org/2000/svg">
<path fill-rule="evenodd" clip-rule="evenodd" d="M13.7071 1.70711C14.0976 1.31658 14.0976 0.683417 13.7071 0.292893C13.3166 -0.0976311 12.6834 -0.0976311 12.2929 0.292893L2.29289 10.2929C1.90237 10.6834 1.90237 11.3166 2.29289 11.7071C2.68342 12.0976 3.31658 12.0976 3.70711 11.7071L4.25815 11.1561C5.33075 11.6677 6.58799 12 8 12C10.4387 12 12.4157 11.0089 13.7772 9.81413C14.4569 9.2177 14.997 8.55904 15.3733 7.92362C15.735 7.3129 16 6.63067 16 6C16 5.36933 15.735 4.6871 15.3733 4.07637C14.997 3.44096 14.4569 2.7823 13.7772 2.18587C13.6808 2.10127 13.5813 2.01769 13.4788 1.93541L13.7071 1.70711ZM12.0537 3.36048L5.78764 9.62657C6.4543 9.86001 7.19468 10 8 10C9.87499 10 11.398 9.24113 12.4581 8.31087C12.9892 7.8448 13.3903 7.34721 13.6524 6.9045C13.9292 6.4371 14 6.11933 14 6C14 5.88067 13.9292 5.5629 13.6524 5.0955C13.3903 4.65279 12.9892 4.1552 12.4581 3.68913C12.33 3.57674 12.1951 3.46684 12.0537 3.36048Z" fill="#7A7A85"/>
<path d="M8 1.49012e-08C8.37892 1.49012e-08 8.74669 0.0239278 9.10274 0.0688294L7.11393 2.05765C5.64206 2.25127 4.4297 2.9101 3.54194 3.68913C3.01083 4.1552 2.60975 4.65279 2.34757 5.0955C2.07077 5.5629 2 5.88067 2 6C2 6.11495 2.06567 6.41404 2.31792 6.85365L0.868951 8.30262C0.781922 8.17582 0.701109 8.04927 0.626701 7.92362C0.265021 7.3129 0 6.63067 0 6C0 5.36933 0.265021 4.6871 0.626701 4.07637C1.003 3.44096 1.5431 2.7823 2.22278 2.18587C3.58425 0.991132 5.56128 1.49012e-08 8 1.49012e-08Z" fill="#7A7A85"/>
</svg>
